<mxfile host="Electron" agent="Mozilla/5.0 (Windows NT 10.0; Win64; x64) AppleWebKit/537.36 (KHTML, like Gecko) draw.io/25.0.2 Chrome/128.0.6613.186 Electron/32.2.5 Safari/537.36" version="25.0.2">
  <diagram name="Page-1" id="21sxd1JLhRx6vWNXKEFD">
    <mxGraphModel dx="1091" dy="646" grid="1" gridSize="10" guides="1" tooltips="1" connect="1" arrows="1" fold="1" page="1" pageScale="1" pageWidth="850" pageHeight="1100" math="0" shadow="0">
      <root>
        <mxCell id="0" />
        <mxCell id="1" parent="0" />
        <mxCell id="0o60pnF43kU1OyqHO9tg-1" value="User" style="rounded=0;whiteSpace=wrap;html=1;" parent="1" vertex="1">
          <mxGeometry x="705" y="482" width="80" height="30" as="geometry" />
        </mxCell>
        <mxCell id="0o60pnF43kU1OyqHO9tg-2" value="Movie" style="rounded=0;whiteSpace=wrap;html=1;" parent="1" vertex="1">
          <mxGeometry x="665" y="202" width="80" height="30" as="geometry" />
        </mxCell>
        <mxCell id="0o60pnF43kU1OyqHO9tg-3" value="Show" style="rounded=0;whiteSpace=wrap;html=1;" parent="1" vertex="1">
          <mxGeometry x="665" y="397" width="80" height="30" as="geometry" />
        </mxCell>
        <mxCell id="0o60pnF43kU1OyqHO9tg-4" value="Booking" style="rounded=0;whiteSpace=wrap;html=1;" parent="1" vertex="1">
          <mxGeometry x="435.00000000000006" y="482" width="80" height="30" as="geometry" />
        </mxCell>
        <mxCell id="db7SQEfbEo6dRX1Lkpu2-1" value="Show Time" style="rounded=0;whiteSpace=wrap;html=1;" vertex="1" parent="1">
          <mxGeometry x="213.33" y="492" width="80" height="30" as="geometry" />
        </mxCell>
        <mxCell id="db7SQEfbEo6dRX1Lkpu2-6" value="&lt;font face=&quot;Times New Roman, serif&quot;&gt;&lt;span style=&quot;font-size: 16px;&quot;&gt;Login&lt;/span&gt;&lt;/font&gt;" style="rounded=0;whiteSpace=wrap;html=1;strokeWidth=1;" vertex="1" parent="1">
          <mxGeometry x="65" y="202" width="80" height="30" as="geometry" />
        </mxCell>
        <mxCell id="db7SQEfbEo6dRX1Lkpu2-7" value="&lt;span style=&quot;font-size: 12pt; line-height: 107%; font-family: &amp;quot;Times New Roman&amp;quot;, serif;&quot;&gt;Theatre&amp;nbsp;&lt;/span&gt;" style="rounded=0;whiteSpace=wrap;html=1;" vertex="1" parent="1">
          <mxGeometry x="385" y="202" width="80" height="30" as="geometry" />
        </mxCell>
        <mxCell id="db7SQEfbEo6dRX1Lkpu2-13" value="add" style="rhombus;whiteSpace=wrap;html=1;" vertex="1" parent="1">
          <mxGeometry x="225" y="197" width="70" height="40" as="geometry" />
        </mxCell>
        <mxCell id="db7SQEfbEo6dRX1Lkpu2-17" value="1" style="text;html=1;align=center;verticalAlign=middle;resizable=0;points=[];autosize=1;strokeColor=none;fillColor=none;" vertex="1" parent="1">
          <mxGeometry x="145" y="190" width="30" height="30" as="geometry" />
        </mxCell>
        <mxCell id="db7SQEfbEo6dRX1Lkpu2-18" value="M" style="text;html=1;align=center;verticalAlign=middle;resizable=0;points=[];autosize=1;strokeColor=none;fillColor=none;" vertex="1" parent="1">
          <mxGeometry x="355" y="190" width="30" height="30" as="geometry" />
        </mxCell>
        <mxCell id="db7SQEfbEo6dRX1Lkpu2-23" value="have" style="html=1;whiteSpace=wrap;aspect=fixed;shape=isoRectangle;" vertex="1" parent="1">
          <mxGeometry x="383.33000000000004" y="282" width="83.33" height="50" as="geometry" />
        </mxCell>
        <mxCell id="db7SQEfbEo6dRX1Lkpu2-24" value="Screen" style="rounded=0;whiteSpace=wrap;html=1;" vertex="1" parent="1">
          <mxGeometry x="213.33" y="292" width="80" height="30" as="geometry" />
        </mxCell>
        <mxCell id="db7SQEfbEo6dRX1Lkpu2-27" value="1" style="text;html=1;align=center;verticalAlign=middle;resizable=0;points=[];autosize=1;strokeColor=none;fillColor=none;" vertex="1" parent="1">
          <mxGeometry x="425" y="232" width="30" height="30" as="geometry" />
        </mxCell>
        <mxCell id="db7SQEfbEo6dRX1Lkpu2-29" value="M" style="text;html=1;align=center;verticalAlign=middle;resizable=0;points=[];autosize=1;strokeColor=none;fillColor=none;" vertex="1" parent="1">
          <mxGeometry x="293.33000000000004" y="272" width="30" height="30" as="geometry" />
        </mxCell>
        <mxCell id="db7SQEfbEo6dRX1Lkpu2-31" value="show" style="html=1;whiteSpace=wrap;aspect=fixed;shape=isoRectangle;" vertex="1" parent="1">
          <mxGeometry x="515" y="197" width="66.67" height="40" as="geometry" />
        </mxCell>
        <mxCell id="db7SQEfbEo6dRX1Lkpu2-34" value="1" style="text;html=1;align=center;verticalAlign=middle;resizable=0;points=[];autosize=1;strokeColor=none;fillColor=none;" vertex="1" parent="1">
          <mxGeometry x="465" y="190" width="30" height="30" as="geometry" />
        </mxCell>
        <mxCell id="db7SQEfbEo6dRX1Lkpu2-35" value="M" style="text;html=1;align=center;verticalAlign=middle;resizable=0;points=[];autosize=1;strokeColor=none;fillColor=none;" vertex="1" parent="1">
          <mxGeometry x="635" y="190" width="30" height="30" as="geometry" />
        </mxCell>
        <mxCell id="db7SQEfbEo6dRX1Lkpu2-36" value="associate" style="html=1;whiteSpace=wrap;aspect=fixed;shape=isoRectangle;" vertex="1" parent="1">
          <mxGeometry x="663.33" y="292" width="83.34" height="50" as="geometry" />
        </mxCell>
        <mxCell id="db7SQEfbEo6dRX1Lkpu2-39" value="1" style="text;html=1;align=center;verticalAlign=middle;resizable=0;points=[];autosize=1;strokeColor=none;fillColor=none;" vertex="1" parent="1">
          <mxGeometry x="705" y="232" width="30" height="30" as="geometry" />
        </mxCell>
        <mxCell id="db7SQEfbEo6dRX1Lkpu2-40" value="M" style="text;html=1;align=center;verticalAlign=middle;resizable=0;points=[];autosize=1;strokeColor=none;fillColor=none;" vertex="1" parent="1">
          <mxGeometry x="705" y="362" width="30" height="30" as="geometry" />
        </mxCell>
        <mxCell id="db7SQEfbEo6dRX1Lkpu2-41" value="have" style="html=1;whiteSpace=wrap;aspect=fixed;shape=isoRectangle;" vertex="1" parent="1">
          <mxGeometry x="441.6800000000001" y="392" width="66.66" height="40" as="geometry" />
        </mxCell>
        <mxCell id="db7SQEfbEo6dRX1Lkpu2-46" value="M" style="text;html=1;align=center;verticalAlign=middle;resizable=0;points=[];autosize=1;strokeColor=none;fillColor=none;" vertex="1" parent="1">
          <mxGeometry x="441.67999999999995" y="452" width="30" height="30" as="geometry" />
        </mxCell>
        <mxCell id="db7SQEfbEo6dRX1Lkpu2-47" value="have" style="html=1;whiteSpace=wrap;aspect=fixed;shape=isoRectangle;" vertex="1" parent="1">
          <mxGeometry x="220.00000000000003" y="392" width="66.66" height="40" as="geometry" />
        </mxCell>
        <mxCell id="db7SQEfbEo6dRX1Lkpu2-50" value="1" style="text;html=1;align=center;verticalAlign=middle;resizable=0;points=[];autosize=1;strokeColor=none;fillColor=none;" vertex="1" parent="1">
          <mxGeometry x="245" y="322" width="30" height="30" as="geometry" />
        </mxCell>
        <mxCell id="db7SQEfbEo6dRX1Lkpu2-51" value="M" style="text;html=1;align=center;verticalAlign=middle;resizable=0;points=[];autosize=1;strokeColor=none;fillColor=none;" vertex="1" parent="1">
          <mxGeometry x="255" y="462" width="30" height="30" as="geometry" />
        </mxCell>
        <mxCell id="db7SQEfbEo6dRX1Lkpu2-45" value="1" style="text;html=1;align=center;verticalAlign=middle;resizable=0;points=[];autosize=1;strokeColor=none;fillColor=none;" vertex="1" parent="1">
          <mxGeometry x="633.33" y="382" width="30" height="30" as="geometry" />
        </mxCell>
        <mxCell id="db7SQEfbEo6dRX1Lkpu2-62" value="Make" style="html=1;whiteSpace=wrap;aspect=fixed;shape=isoRectangle;" vertex="1" parent="1">
          <mxGeometry x="565" y="472" width="83.33" height="50" as="geometry" />
        </mxCell>
        <mxCell id="db7SQEfbEo6dRX1Lkpu2-65" value="1" style="text;html=1;align=center;verticalAlign=middle;resizable=0;points=[];autosize=1;strokeColor=none;fillColor=none;" vertex="1" parent="1">
          <mxGeometry x="675" y="462" width="30" height="30" as="geometry" />
        </mxCell>
        <mxCell id="db7SQEfbEo6dRX1Lkpu2-66" value="M" style="text;html=1;align=center;verticalAlign=middle;resizable=0;points=[];autosize=1;strokeColor=none;fillColor=none;" vertex="1" parent="1">
          <mxGeometry x="515" y="472" width="30" height="30" as="geometry" />
        </mxCell>
        <mxCell id="db7SQEfbEo6dRX1Lkpu2-69" value="" style="endArrow=none;html=1;rounded=0;entryX=0;entryY=0.5;entryDx=0;entryDy=0;" edge="1" parent="1" source="db7SQEfbEo6dRX1Lkpu2-62" target="0o60pnF43kU1OyqHO9tg-1">
          <mxGeometry width="50" height="50" relative="1" as="geometry">
            <mxPoint x="655" y="492" as="sourcePoint" />
            <mxPoint x="695" y="442" as="targetPoint" />
          </mxGeometry>
        </mxCell>
        <mxCell id="db7SQEfbEo6dRX1Lkpu2-70" value="" style="endArrow=none;html=1;rounded=0;entryX=0.019;entryY=0.532;entryDx=0;entryDy=0;entryPerimeter=0;" edge="1" parent="1" target="db7SQEfbEo6dRX1Lkpu2-62">
          <mxGeometry width="50" height="50" relative="1" as="geometry">
            <mxPoint x="515" y="499" as="sourcePoint" />
            <mxPoint x="566" y="492" as="targetPoint" />
          </mxGeometry>
        </mxCell>
        <mxCell id="db7SQEfbEo6dRX1Lkpu2-71" value="" style="endArrow=none;html=1;rounded=0;entryX=0.494;entryY=1.025;entryDx=0;entryDy=0;entryPerimeter=0;exitX=0.5;exitY=0;exitDx=0;exitDy=0;" edge="1" parent="1" source="0o60pnF43kU1OyqHO9tg-4" target="db7SQEfbEo6dRX1Lkpu2-41">
          <mxGeometry width="50" height="50" relative="1" as="geometry">
            <mxPoint x="395" y="492" as="sourcePoint" />
            <mxPoint x="445" y="442" as="targetPoint" />
          </mxGeometry>
        </mxCell>
        <mxCell id="db7SQEfbEo6dRX1Lkpu2-72" value="" style="endArrow=none;html=1;rounded=0;entryX=1.162;entryY=1.033;entryDx=0;entryDy=0;entryPerimeter=0;" edge="1" parent="1" source="db7SQEfbEo6dRX1Lkpu2-41" target="db7SQEfbEo6dRX1Lkpu2-45">
          <mxGeometry width="50" height="50" relative="1" as="geometry">
            <mxPoint x="395" y="492" as="sourcePoint" />
            <mxPoint x="655" y="412" as="targetPoint" />
          </mxGeometry>
        </mxCell>
        <mxCell id="db7SQEfbEo6dRX1Lkpu2-75" value="" style="endArrow=none;html=1;rounded=0;entryX=0.5;entryY=1;entryDx=0;entryDy=0;" edge="1" parent="1" target="db7SQEfbEo6dRX1Lkpu2-24">
          <mxGeometry width="50" height="50" relative="1" as="geometry">
            <mxPoint x="253" y="391" as="sourcePoint" />
            <mxPoint x="445" y="442" as="targetPoint" />
          </mxGeometry>
        </mxCell>
        <mxCell id="db7SQEfbEo6dRX1Lkpu2-76" value="" style="endArrow=none;html=1;rounded=0;exitX=0.5;exitY=0;exitDx=0;exitDy=0;entryX=0.495;entryY=0.965;entryDx=0;entryDy=0;entryPerimeter=0;" edge="1" parent="1" source="db7SQEfbEo6dRX1Lkpu2-1" target="db7SQEfbEo6dRX1Lkpu2-47">
          <mxGeometry width="50" height="50" relative="1" as="geometry">
            <mxPoint x="205" y="482" as="sourcePoint" />
            <mxPoint x="255" y="432" as="targetPoint" />
          </mxGeometry>
        </mxCell>
        <mxCell id="db7SQEfbEo6dRX1Lkpu2-77" value="" style="endArrow=none;html=1;rounded=0;entryX=1;entryY=0.5;entryDx=0;entryDy=0;exitX=0;exitY=0.5;exitDx=0;exitDy=0;" edge="1" parent="1" source="db7SQEfbEo6dRX1Lkpu2-13" target="db7SQEfbEo6dRX1Lkpu2-6">
          <mxGeometry width="50" height="50" relative="1" as="geometry">
            <mxPoint x="395" y="492" as="sourcePoint" />
            <mxPoint x="445" y="442" as="targetPoint" />
          </mxGeometry>
        </mxCell>
        <mxCell id="db7SQEfbEo6dRX1Lkpu2-78" value="" style="endArrow=none;html=1;rounded=0;entryX=1;entryY=0.5;entryDx=0;entryDy=0;exitX=0;exitY=0.5;exitDx=0;exitDy=0;" edge="1" parent="1" source="db7SQEfbEo6dRX1Lkpu2-7" target="db7SQEfbEo6dRX1Lkpu2-13">
          <mxGeometry width="50" height="50" relative="1" as="geometry">
            <mxPoint x="375" y="217" as="sourcePoint" />
            <mxPoint x="293.33000000000004" y="216.5" as="targetPoint" />
          </mxGeometry>
        </mxCell>
        <mxCell id="db7SQEfbEo6dRX1Lkpu2-79" value="" style="endArrow=none;html=1;rounded=0;entryX=1;entryY=0.5;entryDx=0;entryDy=0;exitX=0;exitY=0.5;exitDx=0;exitDy=0;" edge="1" parent="1">
          <mxGeometry width="50" height="50" relative="1" as="geometry">
            <mxPoint x="383.33" y="306.5" as="sourcePoint" />
            <mxPoint x="293.33" y="306.5" as="targetPoint" />
          </mxGeometry>
        </mxCell>
        <mxCell id="db7SQEfbEo6dRX1Lkpu2-80" value="" style="endArrow=none;html=1;rounded=0;entryX=1;entryY=0.5;entryDx=0;entryDy=0;" edge="1" parent="1" source="db7SQEfbEo6dRX1Lkpu2-31" target="db7SQEfbEo6dRX1Lkpu2-7">
          <mxGeometry width="50" height="50" relative="1" as="geometry">
            <mxPoint x="395" y="492" as="sourcePoint" />
            <mxPoint x="445" y="442" as="targetPoint" />
          </mxGeometry>
        </mxCell>
        <mxCell id="db7SQEfbEo6dRX1Lkpu2-81" value="" style="endArrow=none;html=1;rounded=0;entryX=1.026;entryY=0.52;entryDx=0;entryDy=0;entryPerimeter=0;exitX=0;exitY=0.5;exitDx=0;exitDy=0;" edge="1" parent="1" source="0o60pnF43kU1OyqHO9tg-2" target="db7SQEfbEo6dRX1Lkpu2-31">
          <mxGeometry width="50" height="50" relative="1" as="geometry">
            <mxPoint x="395" y="492" as="sourcePoint" />
            <mxPoint x="445" y="442" as="targetPoint" />
          </mxGeometry>
        </mxCell>
        <mxCell id="db7SQEfbEo6dRX1Lkpu2-82" value="" style="endArrow=none;html=1;rounded=0;entryX=0.5;entryY=1;entryDx=0;entryDy=0;exitX=0.5;exitY=0;exitDx=0;exitDy=0;exitPerimeter=0;" edge="1" parent="1" source="db7SQEfbEo6dRX1Lkpu2-36" target="0o60pnF43kU1OyqHO9tg-2">
          <mxGeometry width="50" height="50" relative="1" as="geometry">
            <mxPoint x="395" y="492" as="sourcePoint" />
            <mxPoint x="445" y="442" as="targetPoint" />
          </mxGeometry>
        </mxCell>
        <mxCell id="db7SQEfbEo6dRX1Lkpu2-83" value="" style="endArrow=none;html=1;rounded=0;entryX=0.51;entryY=1.012;entryDx=0;entryDy=0;entryPerimeter=0;exitX=0.5;exitY=0;exitDx=0;exitDy=0;" edge="1" parent="1" source="0o60pnF43kU1OyqHO9tg-3" target="db7SQEfbEo6dRX1Lkpu2-36">
          <mxGeometry width="50" height="50" relative="1" as="geometry">
            <mxPoint x="395" y="492" as="sourcePoint" />
            <mxPoint x="445" y="442" as="targetPoint" />
          </mxGeometry>
        </mxCell>
        <mxCell id="db7SQEfbEo6dRX1Lkpu2-84" value="" style="endArrow=none;html=1;rounded=0;" edge="1" parent="1" source="db7SQEfbEo6dRX1Lkpu2-23">
          <mxGeometry width="50" height="50" relative="1" as="geometry">
            <mxPoint x="395" y="492" as="sourcePoint" />
            <mxPoint x="424" y="232" as="targetPoint" />
          </mxGeometry>
        </mxCell>
        <mxCell id="db7SQEfbEo6dRX1Lkpu2-85" value="ID" style="ellipse;whiteSpace=wrap;html=1;fontStyle=4" vertex="1" parent="1">
          <mxGeometry x="20" y="90" width="45" height="30" as="geometry" />
        </mxCell>
        <mxCell id="db7SQEfbEo6dRX1Lkpu2-88" value="Password" style="ellipse;whiteSpace=wrap;html=1;" vertex="1" parent="1">
          <mxGeometry x="75" y="80" width="60" height="30" as="geometry" />
        </mxCell>
        <mxCell id="db7SQEfbEo6dRX1Lkpu2-89" value="UserName" style="ellipse;whiteSpace=wrap;html=1;" vertex="1" parent="1">
          <mxGeometry x="5" y="140" width="65" height="30" as="geometry" />
        </mxCell>
        <mxCell id="db7SQEfbEo6dRX1Lkpu2-90" value="" style="endArrow=none;html=1;rounded=0;entryX=1;entryY=1;entryDx=0;entryDy=0;exitX=0.5;exitY=0;exitDx=0;exitDy=0;" edge="1" parent="1" source="db7SQEfbEo6dRX1Lkpu2-6" target="db7SQEfbEo6dRX1Lkpu2-85">
          <mxGeometry width="50" height="50" relative="1" as="geometry">
            <mxPoint x="100" y="170" as="sourcePoint" />
            <mxPoint x="460" y="330" as="targetPoint" />
          </mxGeometry>
        </mxCell>
        <mxCell id="db7SQEfbEo6dRX1Lkpu2-91" value="" style="endArrow=none;html=1;rounded=0;entryX=0.5;entryY=1;entryDx=0;entryDy=0;exitX=0.5;exitY=0;exitDx=0;exitDy=0;" edge="1" parent="1" source="db7SQEfbEo6dRX1Lkpu2-6" target="db7SQEfbEo6dRX1Lkpu2-89">
          <mxGeometry width="50" height="50" relative="1" as="geometry">
            <mxPoint x="410" y="380" as="sourcePoint" />
            <mxPoint x="40" y="210" as="targetPoint" />
          </mxGeometry>
        </mxCell>
        <mxCell id="db7SQEfbEo6dRX1Lkpu2-92" value="" style="endArrow=none;html=1;rounded=0;entryX=0.5;entryY=1;entryDx=0;entryDy=0;exitX=0.5;exitY=0;exitDx=0;exitDy=0;" edge="1" parent="1" source="db7SQEfbEo6dRX1Lkpu2-6" target="db7SQEfbEo6dRX1Lkpu2-88">
          <mxGeometry width="50" height="50" relative="1" as="geometry">
            <mxPoint x="410" y="380" as="sourcePoint" />
            <mxPoint x="460" y="330" as="targetPoint" />
          </mxGeometry>
        </mxCell>
        <mxCell id="db7SQEfbEo6dRX1Lkpu2-97" value="user_type" style="ellipse;whiteSpace=wrap;html=1;" vertex="1" parent="1">
          <mxGeometry x="135" y="100" width="60" height="30" as="geometry" />
        </mxCell>
        <mxCell id="db7SQEfbEo6dRX1Lkpu2-100" value="userID" style="ellipse;whiteSpace=wrap;html=1;" vertex="1" parent="1">
          <mxGeometry x="135" y="140" width="60" height="30" as="geometry" />
        </mxCell>
        <mxCell id="db7SQEfbEo6dRX1Lkpu2-102" value="" style="endArrow=none;html=1;rounded=0;entryX=0.5;entryY=1;entryDx=0;entryDy=0;" edge="1" parent="1" target="db7SQEfbEo6dRX1Lkpu2-100">
          <mxGeometry width="50" height="50" relative="1" as="geometry">
            <mxPoint x="110" y="200" as="sourcePoint" />
            <mxPoint x="390" y="320" as="targetPoint" />
          </mxGeometry>
        </mxCell>
        <mxCell id="db7SQEfbEo6dRX1Lkpu2-103" value="" style="endArrow=none;html=1;rounded=0;entryX=0;entryY=1;entryDx=0;entryDy=0;exitX=0.5;exitY=0;exitDx=0;exitDy=0;" edge="1" parent="1" source="db7SQEfbEo6dRX1Lkpu2-6" target="db7SQEfbEo6dRX1Lkpu2-97">
          <mxGeometry width="50" height="50" relative="1" as="geometry">
            <mxPoint x="340" y="370" as="sourcePoint" />
            <mxPoint x="390" y="320" as="targetPoint" />
          </mxGeometry>
        </mxCell>
        <mxCell id="db7SQEfbEo6dRX1Lkpu2-104" value="Name" style="ellipse;whiteSpace=wrap;html=1;" vertex="1" parent="1">
          <mxGeometry x="375" y="90" width="60" height="30" as="geometry" />
        </mxCell>
        <mxCell id="db7SQEfbEo6dRX1Lkpu2-105" value="Address" style="ellipse;whiteSpace=wrap;html=1;" vertex="1" parent="1">
          <mxGeometry x="455" y="150" width="65" height="25" as="geometry" />
        </mxCell>
        <mxCell id="db7SQEfbEo6dRX1Lkpu2-106" value="Place" style="ellipse;whiteSpace=wrap;html=1;" vertex="1" parent="1">
          <mxGeometry x="425" y="110" width="60" height="30" as="geometry" />
        </mxCell>
        <mxCell id="db7SQEfbEo6dRX1Lkpu2-108" value="State" style="ellipse;whiteSpace=wrap;html=1;" vertex="1" parent="1">
          <mxGeometry x="285" y="120" width="70" height="30" as="geometry" />
        </mxCell>
        <mxCell id="db7SQEfbEo6dRX1Lkpu2-109" value="Pin" style="ellipse;whiteSpace=wrap;html=1;" vertex="1" parent="1">
          <mxGeometry x="323.33" y="92.5" width="46.67" height="25" as="geometry" />
        </mxCell>
        <mxCell id="db7SQEfbEo6dRX1Lkpu2-111" value="&lt;u&gt;t_id&lt;/u&gt;" style="ellipse;whiteSpace=wrap;html=1;" vertex="1" parent="1">
          <mxGeometry x="280.83" y="152" width="55" height="28" as="geometry" />
        </mxCell>
        <mxCell id="db7SQEfbEo6dRX1Lkpu2-114" value="" style="endArrow=none;html=1;rounded=0;entryX=1;entryY=1;entryDx=0;entryDy=0;exitX=0.5;exitY=0;exitDx=0;exitDy=0;" edge="1" parent="1" source="db7SQEfbEo6dRX1Lkpu2-7" target="db7SQEfbEo6dRX1Lkpu2-111">
          <mxGeometry width="50" height="50" relative="1" as="geometry">
            <mxPoint x="340" y="370" as="sourcePoint" />
            <mxPoint x="390" y="320" as="targetPoint" />
          </mxGeometry>
        </mxCell>
        <mxCell id="db7SQEfbEo6dRX1Lkpu2-115" value="" style="endArrow=none;html=1;rounded=0;entryX=1;entryY=1;entryDx=0;entryDy=0;exitX=0.5;exitY=0;exitDx=0;exitDy=0;" edge="1" parent="1" source="db7SQEfbEo6dRX1Lkpu2-7" target="db7SQEfbEo6dRX1Lkpu2-108">
          <mxGeometry width="50" height="50" relative="1" as="geometry">
            <mxPoint x="340" y="370" as="sourcePoint" />
            <mxPoint x="390" y="320" as="targetPoint" />
          </mxGeometry>
        </mxCell>
        <mxCell id="db7SQEfbEo6dRX1Lkpu2-116" value="" style="endArrow=none;html=1;rounded=0;entryX=1;entryY=1;entryDx=0;entryDy=0;" edge="1" parent="1" target="db7SQEfbEo6dRX1Lkpu2-109">
          <mxGeometry width="50" height="50" relative="1" as="geometry">
            <mxPoint x="420" y="200" as="sourcePoint" />
            <mxPoint x="390" y="320" as="targetPoint" />
          </mxGeometry>
        </mxCell>
        <mxCell id="db7SQEfbEo6dRX1Lkpu2-117" value="" style="endArrow=none;html=1;rounded=0;entryX=0.5;entryY=1;entryDx=0;entryDy=0;exitX=0.5;exitY=0;exitDx=0;exitDy=0;" edge="1" parent="1" source="db7SQEfbEo6dRX1Lkpu2-7" target="db7SQEfbEo6dRX1Lkpu2-104">
          <mxGeometry width="50" height="50" relative="1" as="geometry">
            <mxPoint x="340" y="370" as="sourcePoint" />
            <mxPoint x="390" y="320" as="targetPoint" />
          </mxGeometry>
        </mxCell>
        <mxCell id="db7SQEfbEo6dRX1Lkpu2-118" value="" style="endArrow=none;html=1;rounded=0;entryX=0;entryY=1;entryDx=0;entryDy=0;exitX=0.5;exitY=0;exitDx=0;exitDy=0;" edge="1" parent="1" source="db7SQEfbEo6dRX1Lkpu2-7" target="db7SQEfbEo6dRX1Lkpu2-106">
          <mxGeometry width="50" height="50" relative="1" as="geometry">
            <mxPoint x="340" y="370" as="sourcePoint" />
            <mxPoint x="390" y="320" as="targetPoint" />
          </mxGeometry>
        </mxCell>
        <mxCell id="db7SQEfbEo6dRX1Lkpu2-119" value="" style="endArrow=none;html=1;rounded=0;entryX=0;entryY=1;entryDx=0;entryDy=0;exitX=0.5;exitY=0;exitDx=0;exitDy=0;" edge="1" parent="1" source="db7SQEfbEo6dRX1Lkpu2-7" target="db7SQEfbEo6dRX1Lkpu2-105">
          <mxGeometry width="50" height="50" relative="1" as="geometry">
            <mxPoint x="430" y="200" as="sourcePoint" />
            <mxPoint x="390" y="320" as="targetPoint" />
          </mxGeometry>
        </mxCell>
        <mxCell id="db7SQEfbEo6dRX1Lkpu2-121" value="&lt;u&gt;movie_id&lt;/u&gt;" style="ellipse;whiteSpace=wrap;html=1;" vertex="1" parent="1">
          <mxGeometry x="588.3299999999999" y="160" width="60" height="30" as="geometry" />
        </mxCell>
        <mxCell id="db7SQEfbEo6dRX1Lkpu2-122" value="movie_name" style="ellipse;whiteSpace=wrap;html=1;" vertex="1" parent="1">
          <mxGeometry x="581.6700000000001" y="122" width="80" height="30" as="geometry" />
        </mxCell>
        <mxCell id="db7SQEfbEo6dRX1Lkpu2-123" value="cast" style="ellipse;whiteSpace=wrap;html=1;" vertex="1" parent="1">
          <mxGeometry x="765" y="175" width="50" height="30" as="geometry" />
        </mxCell>
        <mxCell id="db7SQEfbEo6dRX1Lkpu2-125" value="description" style="ellipse;whiteSpace=wrap;html=1;" vertex="1" parent="1">
          <mxGeometry x="591.6700000000001" y="87.5" width="70" height="30" as="geometry" />
        </mxCell>
        <mxCell id="db7SQEfbEo6dRX1Lkpu2-126" value="release_date" style="ellipse;whiteSpace=wrap;html=1;" vertex="1" parent="1">
          <mxGeometry x="750" y="95" width="80" height="40" as="geometry" />
        </mxCell>
        <mxCell id="db7SQEfbEo6dRX1Lkpu2-127" value="image" style="ellipse;whiteSpace=wrap;html=1;" vertex="1" parent="1">
          <mxGeometry x="750" y="145" width="70" height="20" as="geometry" />
        </mxCell>
        <mxCell id="db7SQEfbEo6dRX1Lkpu2-128" value="video_url" style="ellipse;whiteSpace=wrap;html=1;" vertex="1" parent="1">
          <mxGeometry x="646.5" y="70" width="70" height="30" as="geometry" />
        </mxCell>
        <mxCell id="db7SQEfbEo6dRX1Lkpu2-129" value="status" style="ellipse;whiteSpace=wrap;html=1;" vertex="1" parent="1">
          <mxGeometry x="716.5" y="64.5" width="57" height="28" as="geometry" />
        </mxCell>
        <mxCell id="db7SQEfbEo6dRX1Lkpu2-130" value="" style="endArrow=none;html=1;rounded=0;entryX=1;entryY=0.5;entryDx=0;entryDy=0;exitX=0.5;exitY=0;exitDx=0;exitDy=0;" edge="1" parent="1" source="0o60pnF43kU1OyqHO9tg-2" target="db7SQEfbEo6dRX1Lkpu2-121">
          <mxGeometry width="50" height="50" relative="1" as="geometry">
            <mxPoint x="340" y="370" as="sourcePoint" />
            <mxPoint x="390" y="320" as="targetPoint" />
          </mxGeometry>
        </mxCell>
        <mxCell id="db7SQEfbEo6dRX1Lkpu2-131" value="" style="endArrow=none;html=1;rounded=0;entryX=1;entryY=1;entryDx=0;entryDy=0;exitX=0.5;exitY=0;exitDx=0;exitDy=0;" edge="1" parent="1" source="0o60pnF43kU1OyqHO9tg-2" target="db7SQEfbEo6dRX1Lkpu2-122">
          <mxGeometry width="50" height="50" relative="1" as="geometry">
            <mxPoint x="340" y="370" as="sourcePoint" />
            <mxPoint x="390" y="320" as="targetPoint" />
          </mxGeometry>
        </mxCell>
        <mxCell id="db7SQEfbEo6dRX1Lkpu2-132" value="" style="endArrow=none;html=1;rounded=0;exitX=0.5;exitY=0;exitDx=0;exitDy=0;entryX=1;entryY=1;entryDx=0;entryDy=0;" edge="1" parent="1" source="0o60pnF43kU1OyqHO9tg-2" target="db7SQEfbEo6dRX1Lkpu2-125">
          <mxGeometry width="50" height="50" relative="1" as="geometry">
            <mxPoint x="715" y="212" as="sourcePoint" />
            <mxPoint x="670" y="158" as="targetPoint" />
          </mxGeometry>
        </mxCell>
        <mxCell id="db7SQEfbEo6dRX1Lkpu2-133" value="" style="endArrow=none;html=1;rounded=0;entryX=0.634;entryY=1.123;entryDx=0;entryDy=0;exitX=0.5;exitY=0;exitDx=0;exitDy=0;entryPerimeter=0;" edge="1" parent="1" source="0o60pnF43kU1OyqHO9tg-2" target="db7SQEfbEo6dRX1Lkpu2-128">
          <mxGeometry width="50" height="50" relative="1" as="geometry">
            <mxPoint x="725" y="222" as="sourcePoint" />
            <mxPoint x="670" y="168" as="targetPoint" />
          </mxGeometry>
        </mxCell>
        <mxCell id="db7SQEfbEo6dRX1Lkpu2-134" value="" style="endArrow=none;html=1;rounded=0;entryX=0;entryY=1;entryDx=0;entryDy=0;exitX=0.5;exitY=0;exitDx=0;exitDy=0;" edge="1" parent="1" source="0o60pnF43kU1OyqHO9tg-2" target="db7SQEfbEo6dRX1Lkpu2-129">
          <mxGeometry width="50" height="50" relative="1" as="geometry">
            <mxPoint x="735" y="232" as="sourcePoint" />
            <mxPoint x="680" y="178" as="targetPoint" />
          </mxGeometry>
        </mxCell>
        <mxCell id="db7SQEfbEo6dRX1Lkpu2-135" value="" style="endArrow=none;html=1;rounded=0;entryX=0;entryY=0.5;entryDx=0;entryDy=0;exitX=0.5;exitY=0;exitDx=0;exitDy=0;" edge="1" parent="1" source="0o60pnF43kU1OyqHO9tg-2" target="db7SQEfbEo6dRX1Lkpu2-126">
          <mxGeometry width="50" height="50" relative="1" as="geometry">
            <mxPoint x="710" y="200" as="sourcePoint" />
            <mxPoint x="690" y="188" as="targetPoint" />
          </mxGeometry>
        </mxCell>
        <mxCell id="db7SQEfbEo6dRX1Lkpu2-136" value="" style="endArrow=none;html=1;rounded=0;entryX=0;entryY=0.5;entryDx=0;entryDy=0;exitX=0.5;exitY=0;exitDx=0;exitDy=0;" edge="1" parent="1" source="0o60pnF43kU1OyqHO9tg-2" target="db7SQEfbEo6dRX1Lkpu2-127">
          <mxGeometry width="50" height="50" relative="1" as="geometry">
            <mxPoint x="700" y="200" as="sourcePoint" />
            <mxPoint x="700" y="198" as="targetPoint" />
          </mxGeometry>
        </mxCell>
        <mxCell id="db7SQEfbEo6dRX1Lkpu2-137" value="" style="endArrow=none;html=1;rounded=0;entryX=0;entryY=0.5;entryDx=0;entryDy=0;exitX=0.5;exitY=0;exitDx=0;exitDy=0;" edge="1" parent="1" source="0o60pnF43kU1OyqHO9tg-2" target="db7SQEfbEo6dRX1Lkpu2-123">
          <mxGeometry width="50" height="50" relative="1" as="geometry">
            <mxPoint x="765" y="262" as="sourcePoint" />
            <mxPoint x="710" y="208" as="targetPoint" />
          </mxGeometry>
        </mxCell>
        <mxCell id="db7SQEfbEo6dRX1Lkpu2-139" value="&lt;u&gt;screen_id&lt;/u&gt;" style="ellipse;whiteSpace=wrap;html=1;" vertex="1" parent="1">
          <mxGeometry x="90" y="272" width="70" height="28" as="geometry" />
        </mxCell>
        <mxCell id="db7SQEfbEo6dRX1Lkpu2-140" value="screen_name" style="ellipse;whiteSpace=wrap;html=1;" vertex="1" parent="1">
          <mxGeometry x="73.33" y="312" width="80" height="30" as="geometry" />
        </mxCell>
        <mxCell id="db7SQEfbEo6dRX1Lkpu2-141" value="seats" style="ellipse;whiteSpace=wrap;html=1;" vertex="1" parent="1">
          <mxGeometry x="130" y="342" width="70" height="30" as="geometry" />
        </mxCell>
        <mxCell id="db7SQEfbEo6dRX1Lkpu2-142" value="charge" style="ellipse;whiteSpace=wrap;html=1;" vertex="1" parent="1">
          <mxGeometry x="144.99999999999997" y="242" width="60" height="30" as="geometry" />
        </mxCell>
        <mxCell id="db7SQEfbEo6dRX1Lkpu2-144" value="" style="endArrow=none;html=1;rounded=0;entryX=0.5;entryY=1;entryDx=0;entryDy=0;exitX=0;exitY=0.5;exitDx=0;exitDy=0;" edge="1" parent="1" source="db7SQEfbEo6dRX1Lkpu2-24" target="db7SQEfbEo6dRX1Lkpu2-142">
          <mxGeometry width="50" height="50" relative="1" as="geometry">
            <mxPoint x="340" y="370" as="sourcePoint" />
            <mxPoint x="390" y="320" as="targetPoint" />
          </mxGeometry>
        </mxCell>
        <mxCell id="db7SQEfbEo6dRX1Lkpu2-145" value="" style="endArrow=none;html=1;rounded=0;entryX=1;entryY=1;entryDx=0;entryDy=0;exitX=0;exitY=0.5;exitDx=0;exitDy=0;" edge="1" parent="1" source="db7SQEfbEo6dRX1Lkpu2-24" target="db7SQEfbEo6dRX1Lkpu2-139">
          <mxGeometry width="50" height="50" relative="1" as="geometry">
            <mxPoint x="223" y="317" as="sourcePoint" />
            <mxPoint x="193" y="282" as="targetPoint" />
          </mxGeometry>
        </mxCell>
        <mxCell id="db7SQEfbEo6dRX1Lkpu2-146" value="" style="endArrow=none;html=1;rounded=0;entryX=1;entryY=0.5;entryDx=0;entryDy=0;exitX=0;exitY=0.5;exitDx=0;exitDy=0;" edge="1" parent="1" source="db7SQEfbEo6dRX1Lkpu2-24" target="db7SQEfbEo6dRX1Lkpu2-140">
          <mxGeometry width="50" height="50" relative="1" as="geometry">
            <mxPoint x="213" y="300" as="sourcePoint" />
            <mxPoint x="203" y="292" as="targetPoint" />
          </mxGeometry>
        </mxCell>
        <mxCell id="db7SQEfbEo6dRX1Lkpu2-148" value="" style="endArrow=none;html=1;rounded=0;entryX=0.614;entryY=0.028;entryDx=0;entryDy=0;entryPerimeter=0;exitX=0;exitY=0.5;exitDx=0;exitDy=0;" edge="1" parent="1" source="db7SQEfbEo6dRX1Lkpu2-24" target="db7SQEfbEo6dRX1Lkpu2-141">
          <mxGeometry width="50" height="50" relative="1" as="geometry">
            <mxPoint x="340" y="370" as="sourcePoint" />
            <mxPoint x="390" y="320" as="targetPoint" />
          </mxGeometry>
        </mxCell>
        <mxCell id="db7SQEfbEo6dRX1Lkpu2-149" value="&lt;u&gt;st_id&lt;/u&gt;" style="ellipse;whiteSpace=wrap;html=1;" vertex="1" parent="1">
          <mxGeometry x="145" y="580" width="60" height="20" as="geometry" />
        </mxCell>
        <mxCell id="db7SQEfbEo6dRX1Lkpu2-150" value="name" style="ellipse;whiteSpace=wrap;html=1;" vertex="1" parent="1">
          <mxGeometry x="213.32999999999998" y="580" width="60" height="30" as="geometry" />
        </mxCell>
        <mxCell id="db7SQEfbEo6dRX1Lkpu2-151" value="start_time" style="ellipse;whiteSpace=wrap;html=1;" vertex="1" parent="1">
          <mxGeometry x="83.33000000000001" y="535" width="70" height="30" as="geometry" />
        </mxCell>
        <mxCell id="db7SQEfbEo6dRX1Lkpu2-152" value="" style="endArrow=none;html=1;rounded=0;exitX=0.5;exitY=0;exitDx=0;exitDy=0;entryX=0.5;entryY=1;entryDx=0;entryDy=0;" edge="1" parent="1" source="db7SQEfbEo6dRX1Lkpu2-149" target="db7SQEfbEo6dRX1Lkpu2-1">
          <mxGeometry width="50" height="50" relative="1" as="geometry">
            <mxPoint x="340" y="370" as="sourcePoint" />
            <mxPoint x="390" y="320" as="targetPoint" />
          </mxGeometry>
        </mxCell>
        <mxCell id="db7SQEfbEo6dRX1Lkpu2-153" value="" style="endArrow=none;html=1;rounded=0;exitX=0.5;exitY=0;exitDx=0;exitDy=0;entryX=0.5;entryY=1;entryDx=0;entryDy=0;" edge="1" parent="1" source="db7SQEfbEo6dRX1Lkpu2-150" target="db7SQEfbEo6dRX1Lkpu2-1">
          <mxGeometry width="50" height="50" relative="1" as="geometry">
            <mxPoint x="185" y="560" as="sourcePoint" />
            <mxPoint x="263" y="532" as="targetPoint" />
          </mxGeometry>
        </mxCell>
        <mxCell id="db7SQEfbEo6dRX1Lkpu2-154" value="" style="endArrow=none;html=1;rounded=0;exitX=1;exitY=0;exitDx=0;exitDy=0;entryX=0.5;entryY=1;entryDx=0;entryDy=0;" edge="1" parent="1" source="db7SQEfbEo6dRX1Lkpu2-151" target="db7SQEfbEo6dRX1Lkpu2-1">
          <mxGeometry width="50" height="50" relative="1" as="geometry">
            <mxPoint x="195" y="570" as="sourcePoint" />
            <mxPoint x="273" y="542" as="targetPoint" />
          </mxGeometry>
        </mxCell>
        <mxCell id="db7SQEfbEo6dRX1Lkpu2-155" value="&lt;u&gt;s_id&lt;/u&gt;" style="ellipse;whiteSpace=wrap;html=1;" vertex="1" parent="1">
          <mxGeometry x="750" y="322" width="60" height="30" as="geometry" />
        </mxCell>
        <mxCell id="db7SQEfbEo6dRX1Lkpu2-156" value="start_date" style="ellipse;whiteSpace=wrap;html=1;" vertex="1" parent="1">
          <mxGeometry x="770" y="372" width="60" height="30" as="geometry" />
        </mxCell>
        <mxCell id="db7SQEfbEo6dRX1Lkpu2-157" value="status(Availability)" style="ellipse;whiteSpace=wrap;html=1;" vertex="1" parent="1">
          <mxGeometry x="552.5" y="322" width="108.33" height="38" as="geometry" />
        </mxCell>
        <mxCell id="db7SQEfbEo6dRX1Lkpu2-158" value="r_status" style="ellipse;whiteSpace=wrap;html=1;" vertex="1" parent="1">
          <mxGeometry x="565" y="372" width="57" height="28" as="geometry" />
        </mxCell>
        <mxCell id="db7SQEfbEo6dRX1Lkpu2-161" value="" style="endArrow=none;html=1;rounded=0;entryX=0;entryY=1;entryDx=0;entryDy=0;exitX=0.75;exitY=0;exitDx=0;exitDy=0;" edge="1" parent="1" source="0o60pnF43kU1OyqHO9tg-3" target="db7SQEfbEo6dRX1Lkpu2-155">
          <mxGeometry width="50" height="50" relative="1" as="geometry">
            <mxPoint x="340" y="370" as="sourcePoint" />
            <mxPoint x="390" y="320" as="targetPoint" />
          </mxGeometry>
        </mxCell>
        <mxCell id="db7SQEfbEo6dRX1Lkpu2-162" value="" style="endArrow=none;html=1;rounded=0;entryX=0;entryY=0.5;entryDx=0;entryDy=0;exitX=0.75;exitY=0;exitDx=0;exitDy=0;" edge="1" parent="1" source="0o60pnF43kU1OyqHO9tg-3" target="db7SQEfbEo6dRX1Lkpu2-156">
          <mxGeometry width="50" height="50" relative="1" as="geometry">
            <mxPoint x="735" y="407" as="sourcePoint" />
            <mxPoint x="769" y="358" as="targetPoint" />
          </mxGeometry>
        </mxCell>
        <mxCell id="db7SQEfbEo6dRX1Lkpu2-163" value="" style="endArrow=none;html=1;rounded=0;entryX=1;entryY=1;entryDx=0;entryDy=0;exitX=0.25;exitY=0;exitDx=0;exitDy=0;" edge="1" parent="1" source="0o60pnF43kU1OyqHO9tg-3" target="db7SQEfbEo6dRX1Lkpu2-157">
          <mxGeometry width="50" height="50" relative="1" as="geometry">
            <mxPoint x="745" y="417" as="sourcePoint" />
            <mxPoint x="779" y="368" as="targetPoint" />
          </mxGeometry>
        </mxCell>
        <mxCell id="db7SQEfbEo6dRX1Lkpu2-164" value="" style="endArrow=none;html=1;rounded=0;entryX=1;entryY=0.5;entryDx=0;entryDy=0;exitX=0.25;exitY=0;exitDx=0;exitDy=0;" edge="1" parent="1" source="0o60pnF43kU1OyqHO9tg-3" target="db7SQEfbEo6dRX1Lkpu2-158">
          <mxGeometry width="50" height="50" relative="1" as="geometry">
            <mxPoint x="755" y="427" as="sourcePoint" />
            <mxPoint x="789" y="378" as="targetPoint" />
          </mxGeometry>
        </mxCell>
        <mxCell id="db7SQEfbEo6dRX1Lkpu2-165" value="&lt;u&gt;book_id&lt;/u&gt;" style="ellipse;whiteSpace=wrap;html=1;" vertex="1" parent="1">
          <mxGeometry x="325" y="427" width="60" height="30" as="geometry" />
        </mxCell>
        <mxCell id="db7SQEfbEo6dRX1Lkpu2-166" value="no_seats" style="ellipse;whiteSpace=wrap;html=1;" vertex="1" parent="1">
          <mxGeometry x="335.83" y="530" width="70" height="30" as="geometry" />
        </mxCell>
        <mxCell id="db7SQEfbEo6dRX1Lkpu2-167" value="amount" style="ellipse;whiteSpace=wrap;html=1;" vertex="1" parent="1">
          <mxGeometry x="323.33" y="472" width="60" height="30" as="geometry" />
        </mxCell>
        <mxCell id="db7SQEfbEo6dRX1Lkpu2-169" value="ticket_date" style="ellipse;whiteSpace=wrap;html=1;" vertex="1" parent="1">
          <mxGeometry x="385" y="570" width="90" height="30" as="geometry" />
        </mxCell>
        <mxCell id="db7SQEfbEo6dRX1Lkpu2-170" value="date" style="ellipse;whiteSpace=wrap;html=1;" vertex="1" parent="1">
          <mxGeometry x="435.00000000000006" y="540" width="50" height="30" as="geometry" />
        </mxCell>
        <mxCell id="db7SQEfbEo6dRX1Lkpu2-171" value="status" style="ellipse;whiteSpace=wrap;html=1;" vertex="1" parent="1">
          <mxGeometry x="501.5" y="544" width="57" height="28" as="geometry" />
        </mxCell>
        <mxCell id="db7SQEfbEo6dRX1Lkpu2-172" value="" style="endArrow=none;html=1;rounded=0;entryX=0.338;entryY=-0.028;entryDx=0;entryDy=0;exitX=0.5;exitY=1;exitDx=0;exitDy=0;entryPerimeter=0;" edge="1" parent="1" source="0o60pnF43kU1OyqHO9tg-4" target="db7SQEfbEo6dRX1Lkpu2-171">
          <mxGeometry width="50" height="50" relative="1" as="geometry">
            <mxPoint x="475" y="520" as="sourcePoint" />
            <mxPoint x="390" y="320" as="targetPoint" />
          </mxGeometry>
        </mxCell>
        <mxCell id="db7SQEfbEo6dRX1Lkpu2-174" value="" style="endArrow=none;html=1;rounded=0;entryX=1;entryY=1;entryDx=0;entryDy=0;exitX=0;exitY=0.25;exitDx=0;exitDy=0;" edge="1" parent="1" source="0o60pnF43kU1OyqHO9tg-4" target="db7SQEfbEo6dRX1Lkpu2-165">
          <mxGeometry width="50" height="50" relative="1" as="geometry">
            <mxPoint x="340" y="370" as="sourcePoint" />
            <mxPoint x="390" y="320" as="targetPoint" />
          </mxGeometry>
        </mxCell>
        <mxCell id="db7SQEfbEo6dRX1Lkpu2-175" value="" style="endArrow=none;html=1;rounded=0;entryX=0.5;entryY=1;entryDx=0;entryDy=0;exitX=0;exitY=0;exitDx=0;exitDy=0;" edge="1" parent="1" source="db7SQEfbEo6dRX1Lkpu2-170" target="0o60pnF43kU1OyqHO9tg-4">
          <mxGeometry width="50" height="50" relative="1" as="geometry">
            <mxPoint x="445" y="500" as="sourcePoint" />
            <mxPoint x="386" y="463" as="targetPoint" />
          </mxGeometry>
        </mxCell>
        <mxCell id="db7SQEfbEo6dRX1Lkpu2-176" value="" style="endArrow=none;html=1;rounded=0;entryX=0.72;entryY=0.004;entryDx=0;entryDy=0;exitX=0;exitY=0.25;exitDx=0;exitDy=0;entryPerimeter=0;" edge="1" parent="1" source="0o60pnF43kU1OyqHO9tg-4" target="db7SQEfbEo6dRX1Lkpu2-166">
          <mxGeometry width="50" height="50" relative="1" as="geometry">
            <mxPoint x="455" y="510" as="sourcePoint" />
            <mxPoint x="396" y="473" as="targetPoint" />
          </mxGeometry>
        </mxCell>
        <mxCell id="db7SQEfbEo6dRX1Lkpu2-177" value="" style="endArrow=none;html=1;rounded=0;entryX=0.333;entryY=0;entryDx=0;entryDy=0;exitX=0;exitY=0.5;exitDx=0;exitDy=0;entryPerimeter=0;" edge="1" parent="1" source="0o60pnF43kU1OyqHO9tg-4" target="db7SQEfbEo6dRX1Lkpu2-169">
          <mxGeometry width="50" height="50" relative="1" as="geometry">
            <mxPoint x="465" y="520" as="sourcePoint" />
            <mxPoint x="406" y="483" as="targetPoint" />
          </mxGeometry>
        </mxCell>
        <mxCell id="db7SQEfbEo6dRX1Lkpu2-179" value="" style="endArrow=none;html=1;rounded=0;entryX=1;entryY=1;entryDx=0;entryDy=0;exitX=0;exitY=0.25;exitDx=0;exitDy=0;" edge="1" parent="1" source="0o60pnF43kU1OyqHO9tg-4" target="db7SQEfbEo6dRX1Lkpu2-167">
          <mxGeometry width="50" height="50" relative="1" as="geometry">
            <mxPoint x="430" y="490" as="sourcePoint" />
            <mxPoint x="426" y="503" as="targetPoint" />
          </mxGeometry>
        </mxCell>
        <mxCell id="db7SQEfbEo6dRX1Lkpu2-180" value="&lt;u&gt;user_id&lt;/u&gt;" style="ellipse;whiteSpace=wrap;html=1;" vertex="1" parent="1">
          <mxGeometry x="615" y="532" width="70" height="30" as="geometry" />
        </mxCell>
        <mxCell id="db7SQEfbEo6dRX1Lkpu2-181" value="Email" style="ellipse;whiteSpace=wrap;html=1;" vertex="1" parent="1">
          <mxGeometry x="718.33" y="580" width="51.67" height="30" as="geometry" />
        </mxCell>
        <mxCell id="db7SQEfbEo6dRX1Lkpu2-182" value="Phone_No" style="ellipse;whiteSpace=wrap;html=1;" vertex="1" parent="1">
          <mxGeometry x="654.9999999999999" y="560" width="70" height="30" as="geometry" />
        </mxCell>
        <mxCell id="db7SQEfbEo6dRX1Lkpu2-183" value="Age" style="ellipse;whiteSpace=wrap;html=1;" vertex="1" parent="1">
          <mxGeometry x="810" y="502" width="50" height="30" as="geometry" />
        </mxCell>
        <mxCell id="db7SQEfbEo6dRX1Lkpu2-184" value="Gender" style="ellipse;whiteSpace=wrap;html=1;" vertex="1" parent="1">
          <mxGeometry x="810" y="540" width="50" height="30" as="geometry" />
        </mxCell>
        <mxCell id="db7SQEfbEo6dRX1Lkpu2-185" value="Name" style="ellipse;whiteSpace=wrap;html=1;" vertex="1" parent="1">
          <mxGeometry x="773.5" y="575" width="60" height="30" as="geometry" />
        </mxCell>
        <mxCell id="db7SQEfbEo6dRX1Lkpu2-188" value="" style="endArrow=none;html=1;rounded=0;entryX=0.5;entryY=1;entryDx=0;entryDy=0;exitX=1;exitY=0;exitDx=0;exitDy=0;" edge="1" parent="1" source="db7SQEfbEo6dRX1Lkpu2-180" target="0o60pnF43kU1OyqHO9tg-1">
          <mxGeometry width="50" height="50" relative="1" as="geometry">
            <mxPoint x="340" y="370" as="sourcePoint" />
            <mxPoint x="390" y="320" as="targetPoint" />
          </mxGeometry>
        </mxCell>
        <mxCell id="db7SQEfbEo6dRX1Lkpu2-189" value="" style="endArrow=none;html=1;rounded=0;entryX=0.5;entryY=1;entryDx=0;entryDy=0;exitX=0.5;exitY=0;exitDx=0;exitDy=0;" edge="1" parent="1" source="db7SQEfbEo6dRX1Lkpu2-182" target="0o60pnF43kU1OyqHO9tg-1">
          <mxGeometry width="50" height="50" relative="1" as="geometry">
            <mxPoint x="685" y="546" as="sourcePoint" />
            <mxPoint x="755" y="522" as="targetPoint" />
          </mxGeometry>
        </mxCell>
        <mxCell id="db7SQEfbEo6dRX1Lkpu2-190" value="" style="endArrow=none;html=1;rounded=0;entryX=0.5;entryY=1;entryDx=0;entryDy=0;exitX=0.5;exitY=0;exitDx=0;exitDy=0;" edge="1" parent="1" source="db7SQEfbEo6dRX1Lkpu2-181" target="0o60pnF43kU1OyqHO9tg-1">
          <mxGeometry width="50" height="50" relative="1" as="geometry">
            <mxPoint x="700" y="570" as="sourcePoint" />
            <mxPoint x="755" y="522" as="targetPoint" />
          </mxGeometry>
        </mxCell>
        <mxCell id="db7SQEfbEo6dRX1Lkpu2-191" value="" style="endArrow=none;html=1;rounded=0;entryX=0.5;entryY=1;entryDx=0;entryDy=0;exitX=0;exitY=0;exitDx=0;exitDy=0;" edge="1" parent="1" source="db7SQEfbEo6dRX1Lkpu2-185" target="0o60pnF43kU1OyqHO9tg-1">
          <mxGeometry width="50" height="50" relative="1" as="geometry">
            <mxPoint x="754" y="590" as="sourcePoint" />
            <mxPoint x="755" y="522" as="targetPoint" />
          </mxGeometry>
        </mxCell>
        <mxCell id="db7SQEfbEo6dRX1Lkpu2-192" value="" style="endArrow=none;html=1;rounded=0;exitX=0;exitY=0.5;exitDx=0;exitDy=0;entryX=0.5;entryY=1;entryDx=0;entryDy=0;" edge="1" parent="1" source="db7SQEfbEo6dRX1Lkpu2-184" target="0o60pnF43kU1OyqHO9tg-1">
          <mxGeometry width="50" height="50" relative="1" as="geometry">
            <mxPoint x="764" y="600" as="sourcePoint" />
            <mxPoint x="740" y="510" as="targetPoint" />
          </mxGeometry>
        </mxCell>
        <mxCell id="db7SQEfbEo6dRX1Lkpu2-193" value="" style="endArrow=none;html=1;rounded=0;exitX=0;exitY=1;exitDx=0;exitDy=0;entryX=0.5;entryY=1;entryDx=0;entryDy=0;" edge="1" parent="1" source="db7SQEfbEo6dRX1Lkpu2-183" target="0o60pnF43kU1OyqHO9tg-1">
          <mxGeometry width="50" height="50" relative="1" as="geometry">
            <mxPoint x="774" y="610" as="sourcePoint" />
            <mxPoint x="750" y="520" as="targetPoint" />
          </mxGeometry>
        </mxCell>
      </root>
    </mxGraphModel>
  </diagram>
</mxfile>
